<svg width="42" height="68" viewBox="0 0 42 68" fill="none" xmlns="http://www.w3.org/2000/svg">
<path d="M1.59281 0C0.670659 0 0 0.679151 0 1.61298V66.387C0 67.3209 0.670659 68 1.59281 68H40.4072C41.3293 68 42 67.3209 42 66.387V1.61298C42 0.679151 41.3293 0 40.4072 0L1.59281 0ZM8.38323 8.48939H33.5329V50.9363H8.38323V8.48939ZM20.9581 55.181C23.3054 55.181 25.1497 57.0487 25.1497 59.4257C25.1497 61.8027 23.3054 63.6704 20.9581 63.6704C18.6108 63.6704 16.7665 61.8027 16.7665 59.4257C16.7665 57.0487 18.6108 55.181 20.9581 55.181Z" fill="#720303"/>
</svg>
