<svg width="68" height="68" viewBox="0 0 68 68" fill="none" xmlns="http://www.w3.org/2000/svg">
<path d="M0 0.0848939V68H67.896V47.7953C68.0347 47.1804 68.0347 46.5424 67.896 45.9276V0H0V0.0848939ZM8.487 8.57428H59.409V42.5318H46.6785C46.4244 42.5089 46.1688 42.5089 45.9147 42.5318C44.7892 42.6332 43.7501 43.1775 43.0259 44.0452C42.3018 44.9129 41.9518 46.0328 42.0531 47.1586C42.1544 48.2843 42.6986 49.3237 43.5661 50.0481C44.4335 50.7725 45.5531 51.1225 46.6785 51.0212H59.409V59.5106H8.487V8.57428ZM29.7045 17.0637C22.6603 17.0637 16.974 22.7516 16.974 29.7978C16.974 38.2871 29.7045 51.0212 29.7045 51.0212C29.7045 51.0212 42.435 38.2871 42.435 29.7978C42.435 22.7516 36.7487 17.0637 29.7045 17.0637ZM29.7045 25.5531C32.0809 25.5531 33.948 27.4207 33.948 29.7978C33.948 32.1748 32.0809 34.0424 29.7045 34.0424C27.3282 34.0424 25.461 32.1748 25.461 29.7978C25.461 27.4207 27.3282 25.5531 29.7045 25.5531Z" fill="#720303"/>
</svg>
