<svg width="25" height="18" viewBox="0 0 25 18" fill="none" xmlns="http://www.w3.org/2000/svg">
<g clip-path="url(#clip0_182_186)">
<rect width="25" height="18" fill="#C2BABA"/>
<path d="M15.6663 10.0034L13.6414 12.0352C12.8202 12.8592 11.3754 12.877 10.5365 12.0352L8.5115 10.0034L1.23853 17.3C1.50925 17.4252 1.80774 17.4999 2.12508 17.4999H22.0529C22.3702 17.4999 22.6686 17.4253 22.9392 17.3001L15.6663 10.0034Z" fill="#363636"/>
<path d="M22.0528 0.5H2.12498C1.80765 0.5 1.50916 0.574706 1.23853 0.699892L9.01021 8.49737L9.01187 8.4985L9.01248 8.49973L11.5395 11.0351C11.8079 11.3035 12.3699 11.3035 12.6383 11.0351L15.1648 8.50015L15.166 8.4985L15.1676 8.49737L22.9391 0.699844C22.6685 0.574611 22.3701 0.5 22.0528 0.5Z" fill="#363636"/>
<path d="M0.226006 1.69043C0.0859444 1.97367 0 2.28807 0 2.62486V15.3749C0 15.7117 0.08585 16.0261 0.225958 16.3093L7.51154 9.0001L0.226006 1.69043Z" fill="#363636"/>
<path d="M23.9518 1.69043L16.6663 9.00019L23.9518 16.3095C24.0918 16.0262 24.1778 15.7118 24.1778 15.375V2.62496C24.1778 2.28807 24.0918 1.97367 23.9518 1.69043Z" fill="#363636"/>
</g>
<defs>
<clipPath id="clip0_182_186">
<rect width="25" height="18" fill="white"/>
</clipPath>
</defs>
</svg>
