<svg width="32" height="32" viewBox="0 0 32 32" fill="none" xmlns="http://www.w3.org/2000/svg">
<g clip-path="url(#clip0_108_152)">
<path d="M25.04 15.1599L18.6667 7.15992C18.5567 7.02295 18.4206 6.90908 18.2665 6.82485C18.1123 6.74062 17.943 6.68769 17.7683 6.6691C17.5936 6.65052 17.4169 6.66664 17.2485 6.71655C17.08 6.76646 16.9231 6.84917 16.7867 6.95992C16.6497 7.06995 16.5359 7.20597 16.4516 7.36015C16.3674 7.51433 16.3145 7.68364 16.2959 7.85835C16.2773 8.03305 16.2934 8.20971 16.3433 8.37816C16.3932 8.54661 16.4759 8.70354 16.5867 8.83992L22.28 15.9999L16.3067 23.1599C16.1944 23.2947 16.1098 23.4502 16.0578 23.6177C16.0057 23.7852 15.9872 23.9613 16.0033 24.1359C16.0194 24.3105 16.0698 24.4803 16.1516 24.6354C16.2334 24.7905 16.345 24.928 16.48 25.0399C16.7217 25.2339 17.0235 25.3376 17.3334 25.3333C17.5292 25.3336 17.7228 25.2907 17.9002 25.2078C18.0777 25.1248 18.2347 25.0038 18.36 24.8533L25.0267 16.8533C25.2247 16.6162 25.3343 16.3178 25.3367 16.009C25.3391 15.7001 25.2343 15.4 25.04 15.1599Z" fill="#363636"/>
<path d="M9.33332 7.15992C9.11054 6.87526 8.7838 6.69075 8.42498 6.64699C8.06616 6.60323 7.70465 6.70381 7.41999 6.92659C7.13532 7.14937 6.95081 7.47611 6.90706 7.83493C6.8633 8.19375 6.96387 8.55526 7.18665 8.83992L12.9467 15.9999L6.97332 23.1466C6.86105 23.2813 6.77646 23.4369 6.72441 23.6043C6.67235 23.7718 6.65384 23.9479 6.66994 24.1226C6.68604 24.2972 6.73643 24.4669 6.81824 24.6221C6.90004 24.7772 7.01164 24.9147 7.14665 25.0266C7.38654 25.2254 7.68845 25.3339 7.99999 25.3333C8.19587 25.3336 8.38941 25.2907 8.56686 25.2078C8.7443 25.1248 8.90129 25.0038 9.02665 24.8533L15.6933 16.8533C15.8894 16.6147 15.9966 16.3154 15.9966 16.0066C15.9966 15.6978 15.8894 15.3985 15.6933 15.1599L9.33332 7.15992Z" fill="#363636"/>
</g>
<defs>
<clipPath id="clip0_108_152">
<rect width="32" height="32" fill="white"/>
</clipPath>
</defs>
</svg>
