<svg width="19" height="26" viewBox="0 0 19 26" fill="none" xmlns="http://www.w3.org/2000/svg">
<g clip-path="url(#clip0_182_193)">
<path fill-rule="evenodd" clip-rule="evenodd" d="M0 9.87499C0.00681783 4.70017 4.1716 0.506865 9.31122 0.5C14.4508 0.506865 18.6156 4.70017 18.6224 9.87499C18.6224 16.6054 9.94749 25.0351 9.57892 25.3906C9.42986 25.5365 9.19259 25.5365 9.04353 25.3906C8.67496 25.0351 0 16.6054 0 9.87499ZM5.04358 9.87499C5.04358 12.2481 6.95427 14.1719 9.31122 14.1719C11.6676 14.1704 13.5775 12.2475 13.5789 9.87499C13.5789 7.50189 11.6682 5.57812 9.31122 5.57812C6.95427 5.57812 5.04358 7.50189 5.04358 9.87499Z" fill="#363636"/>
</g>
<defs>
<clipPath id="clip0_182_193">
<rect width="19" height="26" fill="white"/>
</clipPath>
</defs>
</svg>
