<svg width="25" height="25" viewBox="0 0 25 25" fill="none" xmlns="http://www.w3.org/2000/svg">
<path d="M24.9453 19.3704C24.8746 19.1573 24.4247 18.8435 23.596 18.4295C23.3715 18.2991 23.0516 18.1217 22.6376 17.8968C22.2233 17.6719 21.8473 17.4646 21.5101 17.2752C21.1723 17.0858 20.8558 16.9023 20.5601 16.725C20.5129 16.6895 20.3649 16.5861 20.1163 16.4141C19.8675 16.2426 19.6577 16.1153 19.4857 16.0323C19.3142 15.9497 19.1454 15.9082 18.9796 15.9082C18.743 15.9082 18.4473 16.077 18.0923 16.4141C17.7374 16.7517 17.4117 17.1183 17.116 17.5152C16.8201 17.9119 16.5064 18.2786 16.1753 18.616C15.8437 18.9535 15.5712 19.1221 15.3584 19.1221C15.2516 19.1221 15.1184 19.0923 14.9587 19.0335C14.7992 18.9744 14.6778 18.9237 14.5944 18.8828C14.5119 18.8411 14.3701 18.7585 14.1688 18.6338C13.967 18.5095 13.8548 18.4414 13.8312 18.4295C12.2096 17.5297 10.8189 16.4999 9.65873 15.3402C8.49896 14.1799 7.46899 12.7893 6.56942 11.1675C6.5576 11.1438 6.48938 11.0313 6.36519 10.8302C6.24081 10.6289 6.15791 10.487 6.1165 10.4039C6.07508 10.3212 6.02477 10.1998 5.96569 10.04C5.90661 9.88025 5.87694 9.74716 5.87694 9.64051C5.87694 9.42757 6.04566 9.15518 6.38304 8.82372C6.72035 8.49243 7.08739 8.17863 7.48379 7.88292C7.88049 7.58721 8.24716 7.26159 8.5846 6.90661C8.92191 6.55145 9.09057 6.25567 9.09057 6.01898C9.09057 5.85337 9.04915 5.68453 8.96638 5.51295C8.88354 5.341 8.7563 5.13117 8.5846 4.88247C8.41283 4.6339 8.30929 4.48608 8.27372 4.43851C8.09635 4.1428 7.91308 3.82619 7.72346 3.48881C7.53385 3.1515 7.32688 2.7755 7.10188 2.36126C6.87707 1.94721 6.69964 1.62749 6.56929 1.40262C6.15524 0.574193 5.84162 0.124192 5.6285 0.0534205C5.5456 0.0179105 5.42122 0 5.25567 0C4.9359 0 4.51873 0.0590797 4.00387 0.177612C3.48881 0.295958 3.08353 0.420088 2.78757 0.550499C2.19571 0.798945 1.56841 1.52096 0.905475 2.7163C0.301804 3.82874 0 4.9298 0 6.01867C0 6.33801 0.020709 6.64871 0.062127 6.95083C0.103545 7.25263 0.17755 7.59299 0.284205 7.97185C0.390673 8.35058 0.476556 8.63192 0.541481 8.81513C0.606469 8.99847 0.7278 9.32689 0.905413 9.80052C1.08278 10.274 1.18943 10.5639 1.22494 10.6704C1.63918 11.8305 2.13042 12.8661 2.69851 13.7776C3.63322 15.2927 4.90878 16.8584 6.52446 18.4742C8.14019 20.0899 9.70562 21.3654 11.2208 22.3005C12.1322 22.8685 13.1682 23.3597 14.3281 23.7743C14.4347 23.8096 14.7245 23.916 15.1979 24.094C15.6714 24.2715 15.9999 24.3928 16.1832 24.4579C16.3666 24.5231 16.6481 24.609 17.0265 24.7157C17.4057 24.8223 17.7458 24.8963 18.0476 24.9381C18.3495 24.9789 18.6603 25 18.9797 25C20.0685 25 21.1696 24.698 22.2823 24.0944C23.4775 23.4317 24.1993 22.8043 24.4479 22.212C24.5786 21.9163 24.7024 21.5109 24.8208 20.9959C24.9395 20.4811 24.9984 20.064 24.9984 19.7443C24.9988 19.578 24.981 19.454 24.9453 19.3704Z" fill="#363636"/>
</svg>
