<svg width="32" height="31" viewBox="0 0 32 31" fill="none" xmlns="http://www.w3.org/2000/svg">
<g clip-path="url(#clip0_108_321)">
<path d="M31.93 24.0193C31.8395 23.7551 31.2636 23.3659 30.2029 22.8526C29.9155 22.6909 29.506 22.4709 28.9761 22.192C28.4458 21.9132 27.9645 21.6561 27.5329 21.4212C27.1005 21.1864 26.6954 20.9589 26.3169 20.739C26.2565 20.695 26.0671 20.5668 25.7489 20.3535C25.4304 20.1408 25.1619 19.983 24.9417 19.8801C24.7222 19.7776 24.5061 19.7262 24.2939 19.7262C23.991 19.7262 23.6125 19.9355 23.1581 20.3535C22.7039 20.7721 22.287 21.2267 21.9085 21.7188C21.5297 22.2108 21.1282 22.6655 20.7044 23.0838C20.2799 23.5023 19.9311 23.7114 19.6588 23.7114C19.522 23.7114 19.3516 23.6745 19.1471 23.6015C18.943 23.5283 18.7876 23.4654 18.6808 23.4147C18.5752 23.363 18.3937 23.2605 18.1361 23.1059C17.8778 22.9518 17.7341 22.8673 17.7039 22.8526C15.6283 21.7368 13.8482 20.4599 12.3632 19.0218C10.8787 17.5831 9.56031 15.8587 8.40886 13.8477C8.39373 13.8183 8.30641 13.6788 8.14744 13.4294C7.98824 13.1798 7.88212 13.0039 7.82912 12.9008C7.7761 12.7983 7.71171 12.6478 7.63608 12.4496C7.56046 12.2515 7.52248 12.0865 7.52248 11.9542C7.52248 11.6902 7.73844 11.3524 8.17029 10.9414C8.60205 10.5306 9.07186 10.1415 9.57925 9.77482C10.087 9.40814 10.5564 9.00437 10.9883 8.5642C11.42 8.1238 11.6359 7.75703 11.6359 7.46354C11.6359 7.25818 11.5829 7.04882 11.477 6.83606C11.3709 6.62284 11.2081 6.36265 10.9883 6.05426C10.7684 5.74604 10.6359 5.56274 10.5904 5.50375C10.3633 5.13707 10.1287 4.74448 9.88603 4.32612C9.64333 3.90786 9.37841 3.44162 9.09041 2.92796C8.80265 2.41454 8.57554 2.01809 8.40869 1.73925C7.87871 0.711999 7.47727 0.153998 7.20448 0.0662414C7.09837 0.022209 6.93916 0 6.72726 0C6.31795 0 5.78397 0.0732588 5.12495 0.220239C4.46568 0.366988 3.94692 0.520909 3.56809 0.682619C2.81051 0.990692 2.00756 1.88599 1.15901 3.36821C0.386309 4.74764 0 6.11295 0 7.46315C0 7.85913 0.0265075 8.2444 0.0795226 8.61903C0.132538 8.99326 0.227264 9.41531 0.363782 9.88509C0.500061 10.3547 0.609992 10.7036 0.693096 10.9308C0.77628 11.1581 0.931584 11.5653 1.15893 12.1526C1.38596 12.7398 1.52247 13.0992 1.56792 13.2313C2.09815 14.6698 2.72694 15.954 3.45409 17.0842C4.65052 18.9629 6.28324 20.9044 8.35131 22.908C10.4194 24.9115 12.4232 26.4931 14.3626 27.6526C15.5292 28.3569 16.8553 28.966 18.34 29.4801C18.4764 29.5239 18.8474 29.6558 19.4533 29.8766C20.0594 30.0967 20.4799 30.2471 20.7145 30.3278C20.9492 30.4086 21.3096 30.5152 21.7939 30.6475C22.2793 30.7797 22.7146 30.8714 23.1009 30.9232C23.4874 30.9738 23.8852 31 24.294 31C25.6877 31 27.0971 30.6255 28.5213 29.8771C30.0512 29.0553 30.9751 28.2773 31.2933 27.5429C31.4606 27.1762 31.6191 26.6735 31.7706 26.0349C31.9226 25.3966 31.998 24.8794 31.998 24.4829C31.9985 24.2767 31.9757 24.123 31.93 24.0193Z" fill="#720303"/>
</g>
<defs>
<clipPath id="clip0_108_321">
<rect width="32" height="31" fill="white"/>
</clipPath>
</defs>
</svg>
